<?xml version="1.0" encoding="UTF-8"?>
<svg version="1.1" xmlns="http://www.w3.org/2000/svg" width="1024" height="1024">
<path d="M0 0 C4.08743517 3.07636523 7.88385479 6.42624159 11.58984375 9.94921875 C12.07453125 9.58570313 12.55921875 9.2221875 13.05859375 8.84765625 C14.47630361 7.78437385 15.89571106 6.72335278 17.31640625 5.6640625 C18.74069958 4.5897244 20.15415518 3.50069233 21.55078125 2.390625 C33.68089883 -7.14018167 46.32410742 -10.56411323 61.58984375 -9.05078125 C75.06705292 -6.31492333 84.51305602 1.27611294 92.28125 12.36328125 C108.32262695 37.69177117 106.93709494 72.39540733 102.58984375 100.94921875 C102.47157227 101.75810547 102.35330078 102.56699219 102.23144531 103.40039062 C99.11186109 123.99123407 92.74603207 143.74915859 82.58984375 161.94921875 C81.85507812 163.30466797 81.85507812 163.30466797 81.10546875 164.6875 C75.12348273 175.22318886 67.39262786 184.66424547 58.58984375 192.94921875 C57.78546875 193.77421875 56.98109375 194.59921875 56.15234375 195.44921875 C27.71487043 223.19309516 -16.37344911 242.18753248 -56.41015625 241.94921875 C-60.76828725 241.78292165 -64.60332728 241.57765195 -67.953125 238.55859375 C-74.34071175 229.51770173 -77.62329452 215.81927046 -77.41015625 204.94921875 C-78.07015625 204.61921875 -78.73015625 204.28921875 -79.41015625 203.94921875 C-79.90269554 175.61684335 -77.56521978 148.06393786 -63.63671875 122.72265625 C-62.27216924 120.15628585 -62.27216924 120.15628585 -62.43359375 117.9921875 C-63.94112833 114.83842516 -66.00775714 112.09370599 -68.03515625 109.26171875 C-81.77380386 89.3447444 -87.53333952 64.66250852 -83.22265625 40.76171875 C-79.95031441 24.25108623 -71.5709472 8.60829291 -57.484375 -1.05859375 C-54.51328557 -2.86314362 -51.51868977 -4.49651449 -48.41015625 -6.05078125 C-47.70632813 -6.41300781 -47.0025 -6.77523438 -46.27734375 -7.1484375 C-31.38908688 -13.42485952 -12.71493213 -8.60731822 0 0 Z " fill="#FDFBF1" transform="translate(343.41015625,349.05078125)"/>
<path d="M0 0 C13.98863143 -0.01418976 27.97725904 -0.02376591 41.96589732 -0.02722454 C44.61574139 -0.02794389 47.26558518 -0.02898152 49.91542912 -0.03006172 C147.8605471 -0.06413411 147.8605471 -0.06413411 152.78614712 1.00328636 C157.74789671 6.18074211 156.96812544 13.33485556 156.97364712 20.06578636 C156.98589321 20.85533714 156.99813931 21.64488792 157.01075649 22.45836449 C157.02152109 26.73908456 156.86550191 30.14371203 154.78614712 34.00328636 C151.7203891 37.06904438 148.07898569 36.48471502 143.94386196 36.62340355 C142.94568132 36.66109226 141.94750069 36.69878098 140.91907215 36.73761177 C123.45973052 37.29962957 105.97733727 37.12058863 88.51163721 37.08707905 C82.94010904 37.07735963 77.36857585 37.07314433 71.79704189 37.06804466 C60.92025167 37.05710619 50.04347795 37.04016371 39.16669858 37.02150369 C30.26832527 37.00655109 21.36995312 36.99544559 12.47157192 36.98644066 C-16.56592105 36.95651378 -45.60324685 36.90622199 -74.64062977 36.81936455 C-77.3121727 36.81143375 -79.98371583 36.80357273 -82.65525913 36.79576683 C-83.31751911 36.7938259 -83.97977909 36.79188497 -84.66210756 36.78988522 C-95.65545539 36.75808357 -106.6487813 36.74163577 -117.64216693 36.73009214 C-129.144487 36.71770663 -140.64667374 36.69005976 -152.14893091 36.6486733 C-158.52478121 36.62617469 -164.90047838 36.61036975 -171.27637196 36.61140251 C-177.17926223 36.61214272 -183.08180007 36.59445357 -188.98459911 36.56211853 C-191.14381588 36.55358022 -193.30307198 36.55189606 -195.46229839 36.55748367 C-198.39858821 36.56407699 -201.3337388 36.54632391 -204.26991367 36.5222683 C-205.12640463 36.53002871 -205.9828956 36.53778913 -206.86534083 36.54578471 C-210.68357603 36.49007243 -212.5948746 36.45726261 -215.74050045 34.15017128 C-217.71500719 31.27303296 -217.73065444 29.32085491 -217.74510288 25.84703636 C-217.75025913 24.6598098 -217.75541538 23.47258324 -217.76072788 22.24938011 C-217.74525913 21.01316917 -217.72979038 19.77695824 -217.71385288 18.50328636 C-217.72932163 17.26707542 -217.74479038 16.03086449 -217.76072788 14.75719261 C-217.75557163 13.56996605 -217.75041538 12.38273949 -217.74510288 11.15953636 C-217.74059116 10.07479027 -217.73607944 8.99004417 -217.73143101 7.87242699 C-217.06900008 4.20030988 -216.18417671 3.24137263 -213.21385288 1.00328636 C-210.45841842 0.60677048 -208.10057983 0.45565183 -205.34585667 0.48430443 C-204.14648746 0.47305255 -204.14648746 0.47305255 -202.92288858 0.46157336 C-200.23600482 0.44123829 -197.54996078 0.44941287 -194.8630228 0.45738792 C-192.93464417 0.44865008 -191.00627279 0.43816356 -189.07791233 0.42606163 C-183.80795604 0.39804004 -178.53823398 0.39480253 -173.26821399 0.39578152 C-167.66608317 0.39262953 -162.06405363 0.3669152 -156.46197605 0.3438015 C-145.74617694 0.3030534 -135.03043823 0.28288888 -124.31457359 0.2698276 C-112.47545413 0.25439307 -100.63645243 0.21582978 -88.7973969 0.1752429 C-59.19830885 0.07498907 -29.59923056 0.03026703 0 0 Z " fill="#C81D29" transform="translate(599.2138528823853,571.9967136383057)"/>
<path d="M0 0 C4.08743517 3.07636523 7.88385479 6.42624159 11.58984375 9.94921875 C12.07453125 9.58570313 12.55921875 9.2221875 13.05859375 8.84765625 C14.47630361 7.78437385 15.89571106 6.72335278 17.31640625 5.6640625 C18.74069958 4.5897244 20.15415518 3.50069233 21.55078125 2.390625 C33.68089883 -7.14018167 46.32410742 -10.56411323 61.58984375 -9.05078125 C75.06705292 -6.31492333 84.51305602 1.27611294 92.28125 12.36328125 C108.32262695 37.69177117 106.93709494 72.39540733 102.58984375 100.94921875 C102.47157227 101.75810547 102.35330078 102.56699219 102.23144531 103.40039062 C99.11186109 123.99123407 92.74603207 143.74915859 82.58984375 161.94921875 C81.85507812 163.30466797 81.85507812 163.30466797 81.10546875 164.6875 C75.12348273 175.22318886 67.39262786 184.66424547 58.58984375 192.94921875 C57.78546875 193.77421875 56.98109375 194.59921875 56.15234375 195.44921875 C27.71487043 223.19309516 -16.37344911 242.18753248 -56.41015625 241.94921875 C-60.76828725 241.78292165 -64.60332728 241.57765195 -67.953125 238.55859375 C-74.34071175 229.51770173 -77.62329452 215.81927046 -77.41015625 204.94921875 C-78.07015625 204.61921875 -78.73015625 204.28921875 -79.41015625 203.94921875 C-79.90269554 175.61684335 -77.56521978 148.06393786 -63.63671875 122.72265625 C-62.27216924 120.15628585 -62.27216924 120.15628585 -62.43359375 117.9921875 C-63.94112833 114.83842516 -66.00775714 112.09370599 -68.03515625 109.26171875 C-81.77380386 89.3447444 -87.53333952 64.66250852 -83.22265625 40.76171875 C-79.95031441 24.25108623 -71.5709472 8.60829291 -57.484375 -1.05859375 C-54.51328557 -2.86314362 -51.51868977 -4.49651449 -48.41015625 -6.05078125 C-47.70632813 -6.41300781 -47.0025 -6.77523438 -46.27734375 -7.1484375 C-31.38908688 -13.42485952 -12.71493213 -8.60731822 0 0 Z M-47.41015625 5.94921875 C-48.92609375 6.78453125 -48.92609375 6.78453125 -50.47265625 7.63671875 C-63.32205096 17.75219969 -70.4358252 30.2487592 -73.0078125 46.38671875 C-75.72925603 70.48338376 -68.15138632 91.17386605 -53.41015625 109.94921875 C-52.24055178 111.50952088 -51.07359401 113.07181302 -49.91015625 114.63671875 C-49.07767484 115.74152786 -48.24470508 116.84597049 -47.41015625 117.94921875 C-47.91804688 118.71363281 -48.4259375 119.47804688 -48.94921875 120.265625 C-67.06797574 148.46166819 -71.95332401 183.34221597 -64.88964844 215.98681641 C-63.26981892 223.50712035 -63.26981892 223.50712035 -59.41015625 229.94921875 C-25.35593975 233.06362236 13.2013391 216.67078732 39.25097656 195.60595703 C41.41579222 193.7653714 43.49903418 191.85622686 45.546875 189.88671875 C47.58984375 187.94921875 47.58984375 187.94921875 50.1484375 185.91796875 C76.2572031 164.86386017 88.1111937 127.04001617 91.93383789 95.07250977 C92.22620632 92.11644991 92.48154974 89.1605166 92.71484375 86.19921875 C92.84004395 84.62116455 92.84004395 84.62116455 92.96777344 83.01123047 C94.70755751 59.89340584 94.9535752 32.96067718 79.58984375 13.94921875 C73.19127898 6.90722288 66.53094608 2.56514297 56.97265625 1.57421875 C43.97546208 1.15579801 34.49660636 5.20902767 24.68359375 13.57421875 C20.23533992 17.78835395 16.56985932 22.58955705 13.58984375 27.94921875 C13.58984375 28.60921875 13.58984375 29.26921875 13.58984375 29.94921875 C12.92984375 29.94921875 12.26984375 29.94921875 11.58984375 29.94921875 C11.36425781 29.24539063 11.13867188 28.5415625 10.90625 27.81640625 C9.31496524 24.35052193 7.11154696 21.82037475 4.52734375 19.07421875 C4.03492188 18.54828125 3.5425 18.02234375 3.03515625 17.48046875 C-5.70355326 8.31272699 -14.30865898 2.05581442 -27.38110352 1.47924805 C-34.72750549 1.37377268 -40.91806115 2.35917772 -47.41015625 5.94921875 Z " fill="#383838" transform="translate(343.41015625,349.05078125)"/>
<path d="M0 0 C1.794375 -0.00386719 1.794375 -0.00386719 3.625 -0.0078125 C6.55327693 0.10742062 9.15786976 0.44676437 12 1.125 C12 1.785 12 2.445 12 3.125 C12.66 3.125 13.32 3.125 14 3.125 C14.36266331 9.42022611 13.01727184 14.83830598 11.39453125 20.8984375 C11.11942215 21.95287048 10.84431305 23.00730347 10.56086731 24.09368896 C9.65298744 27.56468114 8.73287582 31.03230228 7.8125 34.5 C7.16972782 36.94627264 6.52764785 39.39272725 5.88623047 41.83935547 C4.24575564 48.08741814 2.59477938 54.33264832 0.93988037 60.5769043 C0.06432807 63.88215831 -0.8090088 67.18798575 -1.68115234 70.49414062 C-4.55944662 81.40422978 -7.4550687 92.30956258 -10.36424255 103.2114563 C-12.12831864 109.830143 -13.87771639 116.45259278 -15.61739922 123.07772636 C-17.07567054 128.63113783 -18.53898942 134.1832034 -20.00552559 139.73443794 C-20.90104237 143.12547559 -21.79374904 146.51719964 -22.67987061 149.91070557 C-23.66615321 153.68750855 -24.66467073 157.46101857 -25.6640625 161.234375 C-25.95726379 162.365336 -26.25046509 163.496297 -26.55255127 164.66152954 C-26.83121033 165.70618378 -27.10986938 166.75083801 -27.39697266 167.82714844 C-27.75452133 169.18764313 -27.75452133 169.18764313 -28.11929321 170.57562256 C-29.33824223 174.10410806 -30.5570516 177.4035258 -34 179.125 C-41.09056505 180.12055515 -47.95471643 180.48860327 -55 179.125 C-58.32188416 174.14217375 -56.54221378 168.9915567 -55.46875 163.31640625 C-54.27347075 157.84515777 -52.83047469 152.46585331 -51.26113892 147.09251404 C-46.41424427 130.47712925 -42.02461418 113.73307541 -37.57519531 97.00805664 C-36.35599398 92.42623434 -35.13035029 87.84616016 -33.90330696 83.26643276 C-32.95289395 79.71491032 -32.00691883 76.16221706 -31.06219101 72.60917854 C-30.61168668 70.91785408 -30.15954798 69.22696406 -29.70572281 67.53652763 C-29.07663199 65.19150458 -28.45380268 62.84490447 -27.83251953 60.49780273 C-27.64558029 59.80646744 -27.45864105 59.11513214 -27.26603699 58.40284729 C-26.41070105 55.14560378 -26 52.52953805 -26 49.125 C-25.34 49.125 -24.68 49.125 -24 49.125 C-23.90855713 48.52743896 -23.81711426 47.92987793 -23.72290039 47.31420898 C-22.24442311 38.42932739 -19.8533414 29.85130529 -17.4375 21.1875 C-16.81834344 18.94893669 -16.20051359 16.71001011 -15.58277893 14.47105408 C-15.20106732 13.08951992 -14.8182619 11.70828736 -14.43418884 10.32740784 C-13.58417291 7.26873565 -12.74765405 4.21047148 -12 1.125 C-7.95038003 0.15861342 -4.15797593 -0.00896116 0 0 Z " fill="#383838" transform="translate(629,326.875)"/>
<path d="M0 0 C4.58548598 -0.57739593 7.37523084 0.36039666 11.328125 2.625 C12.29234375 3.16640625 13.2565625 3.7078125 14.25 4.265625 C15.735 5.12414062 15.735 5.12414062 17.25 6 C19.2324144 7.12845127 21.21669684 8.25362927 23.203125 9.375 C24.07614258 9.87773437 24.94916016 10.38046875 25.84863281 10.8984375 C27.89387013 12.15191959 27.89387013 12.15191959 30 12 C30 12.66 30 13.32 30 14 C30.71969971 14.27457031 31.43939941 14.54914063 32.1809082 14.83203125 C34.93329449 15.97236346 37.48951672 17.26411792 40.10546875 18.6875 C41.08032227 19.21649902 42.05517578 19.74549805 43.05957031 20.29052734 C44.09178711 20.85465332 45.12400391 21.4187793 46.1875 22 C47.25452148 22.58088379 48.32154297 23.16176758 49.42089844 23.76025391 C58.64293493 28.78807176 67.84904999 33.84378719 77 39 C77.6192334 39.34820801 78.2384668 39.69641602 78.87646484 40.05517578 C91.36887659 47.10662978 91.36887659 47.10662978 93 52 C93.2734375 54.0859375 93.2734375 54.0859375 93.375 56.375 C93.42398438 57.12523437 93.47296875 57.87546875 93.5234375 58.6484375 C92.54884462 63.02683237 88.83449726 65.46427516 85.19873047 67.79833984 C83.6733667 68.62132568 83.6733667 68.62132568 82.1171875 69.4609375 C80.96379883 70.0895166 79.81041016 70.7180957 78.62207031 71.36572266 C77.3730665 72.03551838 76.12404254 72.70527651 74.875 73.375 C73.57336184 74.08154144 72.27226315 74.78907756 70.97167969 75.49755859 C68.29438237 76.95538174 65.61515286 78.40955544 62.93457031 79.86132812 C57.0155626 83.07236174 51.13333724 86.34914402 45.25 89.625 C44.15727783 90.23150391 43.06455566 90.83800781 41.9387207 91.46289062 C36.24483152 94.62536719 30.56275802 97.80747187 24.89453125 101.015625 C23.74758789 101.66321777 22.60064453 102.31081055 21.41894531 102.97802734 C19.23236967 104.21382111 17.04800513 105.45353794 14.86621094 106.69775391 C13.89071289 107.24866699 12.91521484 107.79958008 11.91015625 108.3671875 C11.05558838 108.85300293 10.20102051 109.33881836 9.32055664 109.83935547 C7.15628888 110.9218309 5.392127 111.66422984 3 112 C0.3125 110.8125 0.3125 110.8125 -2 109 C-4.37040886 102.32773803 -3.73667684 93.38557929 -1 87 C3.58335001 82.61469598 9.38214158 79.94819981 14.9375 77 C17.08223245 75.85063577 19.22675866 74.70088664 21.37109375 73.55078125 C22.46405762 72.96635254 23.55702148 72.38192383 24.68310547 71.77978516 C29.97021734 68.94281728 35.23513937 66.06549041 40.5 63.1875 C42.34372981 62.18095261 44.18747784 61.17443858 46.03125 60.16796875 C47.35419605 59.4453663 48.67712512 58.72273274 50 58 C50 57.01 50 56.02 50 55 C46.79607211 52.03373607 43.3415404 49.95833889 39.4921875 47.93359375 C38.43128906 47.3705957 37.37039063 46.80759766 36.27734375 46.22753906 C35.15457031 45.63682617 34.03179688 45.04611328 32.875 44.4375 C24.51558888 39.98866446 16.19687547 35.49271956 8 30.75 C6.81833252 30.07022095 6.81833252 30.07022095 5.61279297 29.37670898 C0.25557105 26.25557105 0.25557105 26.25557105 -2 24 C-2 22.68 -2 21.36 -2 20 C-2.66 19.67 -3.32 19.34 -4 19 C-3.71815415 16.39442509 -3.42497289 13.79099602 -3.125 11.1875 C-3.04636719 10.44951172 -2.96773437 9.71152344 -2.88671875 8.95117188 C-2.45539714 5.28493819 -2.0803217 3.12048255 0 0 Z " fill="#393A3A" transform="translate(665,364)"/>
<path d="M0 0 C2.79540565 2.54855598 3.01207519 4.11921288 3.3984375 7.93359375 C3.4063739 9.43489518 3.39807482 10.93635493 3.375 12.4375 C3.38660156 13.18837891 3.39820313 13.93925781 3.41015625 14.71289062 C3.38611149 19.2693726 3.03131433 22.37673372 0 26 C-2.40625 27.7109375 -2.40625 27.7109375 -5.5 29.375 C-6.08313965 29.69460693 -6.6662793 30.01421387 -7.26708984 30.34350586 C-8.65816225 31.10575852 -10.0521625 31.86268012 -11.44824219 32.61572266 C-16.26775646 35.23021231 -21.05249328 37.90793719 -25.84399414 40.57330322 C-27.57886017 41.53687326 -29.31577077 42.49675924 -31.05273438 43.45654297 C-34.37419579 45.29434752 -37.68859564 47.14414182 -41 49 C-41.57794312 49.32135925 -42.15588623 49.64271851 -42.75134277 49.97381592 C-44.4506183 50.92129111 -46.14340375 51.8803772 -47.8359375 52.83984375 C-48.82899902 53.39921631 -49.82206055 53.95858887 -50.84521484 54.53491211 C-51.55629395 55.01839111 -52.26737305 55.50187012 -53 56 C-53 56.66 -53 57.32 -53 58 C-51.02 58.66 -49.04 59.32 -47 60 C-47 60.66 -47 61.32 -47 62 C-46.319375 62.2475 -45.63875 62.495 -44.9375 62.75 C-42.58634242 63.75049259 -40.6552236 64.79508084 -38.5 66.125 C-35.16081854 67.91384721 -33.67223822 68.44511978 -30 68 C-30 68.99 -30 69.98 -30 71 C-26.42075685 72.98663184 -22.83594259 74.96299036 -19.25 76.9375 C-18.23421875 77.50146484 -17.2184375 78.06542969 -16.171875 78.64648438 C-15.1921875 79.18466797 -14.2125 79.72285156 -13.203125 80.27734375 C-12.30239258 80.77484131 -11.40166016 81.27233887 -10.47363281 81.78491211 C-8.11097577 83.07236836 -8.11097577 83.07236836 -5.78417969 83.46313477 C-5.19540039 83.64030029 -4.60662109 83.81746582 -4 84 C-0.05031872 91.47618242 -0.05737688 99.44398823 -1.75 107.625 C-3 110 -3 110 -4.66015625 111.3359375 C-8.23947655 112.35177131 -10.58905689 110.68533244 -13.6875 109 C-14.71822632 108.46173584 -14.71822632 108.46173584 -15.76977539 107.91259766 C-25.51409322 102.76661483 -35.09076609 97.2974406 -44.68164062 91.87304688 C-49.10002751 89.37908983 -53.52891976 86.90413799 -57.95825195 84.4296875 C-62.07745308 82.1276436 -66.19310604 79.81930992 -70.30810547 77.50976562 C-71.99382458 76.56431968 -73.68023844 75.62011019 -75.36767578 74.67773438 C-77.33086081 73.58104313 -79.29095218 72.47905897 -81.25 71.375 C-82.77367187 70.52035156 -82.77367187 70.52035156 -84.328125 69.6484375 C-91.33826638 65.32346723 -91.33826638 65.32346723 -93 62 C-93.23828125 59.828125 -93.23828125 59.828125 -93.3125 57.25 C-93.34988281 56.40953125 -93.38726562 55.5690625 -93.42578125 54.703125 C-92.82862376 50.91199669 -91.45322383 48.94465488 -89 46 C-86.55035116 44.44324092 -84.28437597 43.17778084 -81.6875 41.9375 C-80.14929622 41.16361587 -78.61293253 40.38606683 -77.078125 39.60546875 C-76.25634766 39.18958496 -75.43457031 38.77370117 -74.58789062 38.34521484 C-69.96548007 35.94243351 -65.45889076 33.33640183 -60.9375 30.75 C-51.91332056 25.61206896 -42.82047623 20.61713054 -33.67895508 15.69140625 C-25.84558043 11.46840933 -18.05826661 7.16782111 -10.2890625 2.828125 C-4.26506539 -0.52012993 -4.26506539 -0.52012993 0 0 Z " fill="#3A3A3A" transform="translate(566,364)"/>
<path d="M0 0 C18.33361389 -0.06710147 36.66642259 -0.0655407 55 0 C56.13005337 0.00381054 56.13005337 0.00381054 57.2829361 0.00769806 C66.7721185 0.04032342 76.26083864 0.09200326 85.74963284 0.18551159 C89.63872035 0.22374472 93.527588 0.25544362 97.4168396 0.27072144 C101.10480537 0.28564964 104.79210905 0.31965105 108.4797802 0.36824608 C110.50144014 0.39013311 112.52328168 0.39247299 114.5450592 0.3943634 C115.75060959 0.414077 116.95615997 0.43379059 118.19824219 0.45410156 C119.25146667 0.46298401 120.30469116 0.47186646 121.38983154 0.48101807 C124 1 124 1 125.82037354 2.86639404 C128.69076622 8.05811117 128.18275762 14.28154449 128.1875 20.0625 C128.19974609 20.85205078 128.21199219 21.64160156 128.22460938 22.45507812 C128.23537397 26.73579819 128.07935479 30.14042567 126 34 C123.59366447 36.40633553 122.93533792 36.28312788 119.63682556 36.41062927 C118.73259889 36.44888101 117.82837221 36.48713274 116.89674473 36.52654362 C115.91108996 36.55702006 114.9254352 36.58749651 113.90991211 36.61889648 C112.8817208 36.656566 111.85352949 36.69423552 110.79418087 36.73304653 C99.34413126 37.11686694 87.89646694 37.12622935 76.44140625 37.09765625 C74.18741386 37.09578429 71.93342105 37.09436408 69.6794281 37.09336853 C63.83207008 37.0896045 57.98473808 37.07982879 52.13739014 37.06866455 C46.13651888 37.05831663 40.13564329 37.05384266 34.13476562 37.04882812 C22.42316398 37.03819909 10.71158826 37.02065424 -1 37 C-0.67 24.79 -0.34 12.58 0 0 Z " fill="#61749B" transform="translate(628,572)"/>
<path d="M0 0 C1.14175186 -0.00058411 2.28350372 -0.00116821 3.45985413 -0.00177002 C7.2368908 0.00101855 11.01314011 0.03214876 14.79003906 0.06347656 C17.40748666 0.07093616 20.02493984 0.07663042 22.64239502 0.08062744 C28.82956715 0.09305565 35.01645628 0.12587482 41.20350385 0.1660254 C48.24816257 0.2107482 55.29283487 0.23273137 62.33760023 0.25280714 C76.82712153 0.29460788 91.31633656 0.36795812 105.80566406 0.45410156 C105.80566406 12.00410156 105.80566406 23.55410156 105.80566406 35.45410156 C90.61986776 35.54438573 75.43419241 35.61807407 60.24819565 35.66135025 C53.19710433 35.68197801 46.14619156 35.71010237 39.09521484 35.75585938 C32.29361524 35.79997703 25.49220148 35.82322384 18.69046783 35.83361053 C16.09245123 35.84101475 13.49444505 35.85547298 10.89650726 35.87702179 C7.26411285 35.9059591 3.63249069 35.91006146 0 35.90820312 C-1.0796553 35.92258423 -2.15931061 35.93696533 -3.27168274 35.95178223 C-10.5346174 35.91144059 -10.5346174 35.91144059 -13.8616333 33.6050415 C-15.64944276 30.71957354 -15.71150638 28.68297857 -15.72558594 25.29785156 C-15.73074219 24.110625 -15.73589844 22.92339844 -15.74121094 21.70019531 C-15.72574219 20.46398437 -15.71027344 19.22777344 -15.69433594 17.95410156 C-15.70980469 16.71789062 -15.72527344 15.48167969 -15.74121094 14.20800781 C-15.73605469 13.02078125 -15.73089844 11.83355469 -15.72558594 10.61035156 C-15.72107422 9.52560547 -15.7165625 8.44085937 -15.71191406 7.32324219 C-15.19433594 4.45410156 -15.19433594 4.45410156 -13.8616333 2.30316162 C-9.55267114 -0.68395558 -5.11677287 -0.06815586 0 0 Z " fill="#67AA6B" transform="translate(397.1943359375,572.5458984375)"/>
<path d="M0 0 C1.64633423 0.01353516 1.64633423 0.01353516 3.32592773 0.02734375 C22.39221861 0.43226166 39.60170474 7.64961774 53.75 20.4375 C51.99399189 24.18575049 49.74754346 26.64028741 46.75 29.4375 C46.16734375 30.03691406 45.5846875 30.63632812 44.984375 31.25390625 C33.81981134 42.14148646 18.42366775 48.3027228 2.9375 48.875 C-14.64534343 48.39248509 -32.52390643 40.56103232 -45.25 28.4375 C-47.38108228 26.17322508 -49.31738922 23.87869256 -51.25 21.4375 C-37.66173276 6.97257036 -19.74862392 -0.19554606 0 0 Z " fill="#FED23A" transform="translate(355.25,426.5625)"/>
<path d="M0 0 C4.30602968 2.11079886 7.10157436 4.62630346 9.3046875 8.94921875 C11.18528475 14.49592413 10.73099469 20.05916324 8.375 25.375 C6.2319205 29.08967113 3.93183622 31.14972413 0 33 C-4.33823043 33.6197472 -6.37930088 33.3342226 -10.25 31.25 C-13.75005516 28.38631851 -15.57196733 26.28409802 -17 22 C-17.50849203 15.77097262 -17.73444209 10.27972848 -14 5 C-9.24068314 0.70500674 -6.46940173 -0.53911681 0 0 Z " fill="#343535" transform="translate(316,389)"/>
<path d="M0 0 C4.30913106 2.52927258 6.37403393 5.29325612 8 10 C8.67687732 16.22170798 8.75203416 21.74715217 5 27 C1.89478136 30.32186181 -0.43864101 32.3095757 -5 32.5625 C-9.25538962 32.24578207 -11.80891029 30.90099065 -15 28 C-18.55240429 23.21197683 -19.70847148 18.38341045 -19.453125 12.46484375 C-18.4813566 7.17875872 -15.64038652 3.50368764 -11.75 -0.0625 C-7.65168509 -1.45965281 -4.15509526 -1.10298892 0 0 Z " fill="#353636" transform="translate(405,389)"/>
<path d="M0 0 C30.69 0 61.38 0 93 0 C92.67 0.66 92.34 1.32 92 2 C62.3 2 32.6 2 2 2 C2 12.56 2 23.12 2 34 C41.93 34 81.86 34 123 34 C122.67 23.44 122.34 12.88 122 2 C112.76 2 103.52 2 94 2 C94 1.34 94 0.68 94 0 C104.23 0 114.46 0 125 0 C125 11.55 125 23.1 125 35 C83.75 35 42.5 35 0 35 C0 23.45 0 11.9 0 0 Z " fill="#B70A13" transform="translate(503,573)"/>
<path d="M0 0 C1.14175186 -0.00058411 2.28350372 -0.00116821 3.45985413 -0.00177002 C7.2368908 0.00101855 11.01314011 0.03214876 14.79003906 0.06347656 C17.40748666 0.07093616 20.02493984 0.07663042 22.64239502 0.08062744 C28.82956715 0.09305565 35.01645628 0.12587482 41.20350385 0.1660254 C48.24816257 0.2107482 55.29283487 0.23273137 62.33760023 0.25280714 C76.82710077 0.29460782 91.31637846 0.36495667 105.80566406 0.45410156 C105.80566406 0.78410156 105.80566406 1.11410156 105.80566406 1.45410156 C105.21667202 1.45556812 104.62767998 1.45703468 104.02083969 1.45854568 C89.69058928 1.49559433 75.36055351 1.55458307 61.0304985 1.6380043 C54.10056926 1.67781699 47.17075394 1.71019803 40.24072266 1.72509766 C33.55566776 1.73949143 26.87101681 1.7745767 20.18610382 1.82241058 C17.63280552 1.83727386 15.07945684 1.84514539 12.52611542 1.84598541 C8.95582728 1.84834186 5.3865252 1.87531659 1.81640625 1.90820312 C0.22497551 1.90065758 0.22497551 1.90065758 -1.39860535 1.89295959 C-6.98526445 1.88968333 -6.98526445 1.88968333 -11.85115051 4.32511902 C-13.56375039 7.03963273 -13.69657319 8.78849551 -13.69042969 11.98925781 C-13.69139648 13.57383789 -13.69139648 13.57383789 -13.69238281 15.19042969 C-13.67240234 16.28806641 -13.65242188 17.38570312 -13.63183594 18.51660156 C-13.63892578 19.61810547 -13.64601563 20.71960938 -13.65332031 21.85449219 C-13.93195362 27.28139527 -13.93195362 27.28139527 -11.9668684 32.08419514 C-9.66198742 33.86552853 -8.32628695 33.8371721 -5.42976379 33.85282898 C-3.959515 33.8716362 -3.959515 33.8716362 -2.45956421 33.89082336 C-1.38566437 33.88938828 -0.31176453 33.88795319 0.79467773 33.88647461 C1.92653 33.89666626 3.05838226 33.90685791 4.22453308 33.9173584 C7.97428256 33.94760804 11.7237771 33.95677283 15.47363281 33.96582031 C18.07010251 33.98265808 20.66656401 34.00080708 23.26301575 34.0202179 C29.40403309 34.06295344 35.5449838 34.09244061 41.68610221 34.11554128 C48.6776533 34.14257789 55.66906639 34.18649027 62.660519 34.23183 C77.04215651 34.32471666 91.42384461 34.39637893 105.80566406 34.45410156 C105.80566406 34.78410156 105.80566406 35.11410156 105.80566406 35.45410156 C90.61991111 35.54753144 75.43417142 35.61807413 60.24819565 35.66135025 C53.19710433 35.68197801 46.14619156 35.71010237 39.09521484 35.75585938 C32.29361524 35.79997703 25.49220148 35.82322384 18.69046783 35.83361053 C16.09245123 35.84101475 13.49444505 35.85547298 10.89650726 35.87702179 C7.26411285 35.9059591 3.63249069 35.91006146 0 35.90820312 C-1.0796553 35.92258423 -2.15931061 35.93696533 -3.27168274 35.95178223 C-10.5346174 35.91144059 -10.5346174 35.91144059 -13.8616333 33.6050415 C-15.64944276 30.71957354 -15.71150638 28.68297857 -15.72558594 25.29785156 C-15.73074219 24.110625 -15.73589844 22.92339844 -15.74121094 21.70019531 C-15.72574219 20.46398437 -15.71027344 19.22777344 -15.69433594 17.95410156 C-15.70980469 16.71789062 -15.72527344 15.48167969 -15.74121094 14.20800781 C-15.73605469 13.02078125 -15.73089844 11.83355469 -15.72558594 10.61035156 C-15.72107422 9.52560547 -15.7165625 8.44085937 -15.71191406 7.32324219 C-15.19433594 4.45410156 -15.19433594 4.45410156 -13.8616333 2.30316162 C-9.55267114 -0.68395558 -5.11677287 -0.06815586 0 0 Z " fill="#437C48" transform="translate(397.1943359375,572.5458984375)"/>
<path d="M0 0 C4.07866166 0.59218318 7.00730627 1.94303117 10.5625 4 C14.22768961 6.1707941 14.22768961 6.1707941 18.23046875 7.48046875 C18.81441406 7.65191406 19.39835938 7.82335937 20 8 C23.94968128 15.47618242 23.94262312 23.44398823 22.25 31.625 C21 34 21 34 19.33984375 35.3359375 C15.76064594 36.35173654 13.41085179 34.68549075 10.3125 33 C9.29482544 32.46826172 9.29482544 32.46826172 8.2565918 31.92578125 C5.82434827 30.64068143 3.41141481 29.32377371 1 28 C0.01515625 27.46117187 -0.9696875 26.92234375 -1.984375 26.3671875 C-13.82606337 19.86300891 -25.61797561 13.28630587 -37 6 C-36.67 5.34 -36.34 4.68 -36 4 C-35.22305786 4.45270264 -35.22305786 4.45270264 -34.43041992 4.91455078 C-21.84773954 12.27308561 -21.84773954 12.27308561 -9.08984375 19.3203125 C-6.39597509 20.78474174 -3.73034117 22.28684675 -1.06640625 23.8046875 C-0.17300537 24.30871094 0.72039551 24.81273437 1.64086914 25.33203125 C3.43511529 26.34458913 5.22485761 27.36517827 7.00952148 28.39453125 C7.83911377 28.85988281 8.66870605 29.32523437 9.5234375 29.8046875 C10.26513184 30.22733887 11.00682617 30.64999023 11.77099609 31.08544922 C14.32793782 32.13455149 16.26191056 32.16921116 19 32 C20.18878471 25.44965185 21.3178588 18.38637385 19 12 C14.38855688 7.02751433 7.92343786 4.3545556 1.74414062 1.8059082 C1.16857422 1.5399585 0.59300781 1.27400879 0 1 C0 0.67 0 0.34 0 0 Z " fill="#2E2E2D" transform="translate(542,440)"/>
<path d="M0 0 C0.98221275 -0.00197891 0.98221275 -0.00197891 1.98426819 -0.0039978 C4.20179642 -0.00594436 6.41920265 0.00054445 8.63671875 0.0078125 C9.41259338 0.00869873 10.18846802 0.00958496 10.987854 0.01049805 C39.76756111 0.04783792 68.54923996 0.64727742 97.32421875 1.1328125 C97.32421875 1.4628125 97.32421875 1.7928125 97.32421875 2.1328125 C38.89540618 3.23107854 38.89540618 3.23107854 10.88671875 3.2578125 C9.9680603 3.26031006 9.04940186 3.26280762 8.10290527 3.26538086 C5.53210535 3.27119741 2.96142577 3.26984685 0.390625 3.265625 C-0.71619881 3.26860092 -0.71619881 3.26860092 -1.84538269 3.27163696 C-5.89143373 3.25327782 -9.70569738 2.91494582 -13.67578125 2.1328125 C-13.67578125 1.8028125 -13.67578125 1.4728125 -13.67578125 1.1328125 C-9.07288144 0.39865235 -4.6593076 0.00462922 0 0 Z " fill="#495879" transform="translate(651.67578125,571.8671875)"/>
<path d="M0 0 C0 0.66 0 1.32 0 2 C-0.90987671 2.48859497 -0.90987671 2.48859497 -1.83813477 2.98706055 C-13.34943898 9.17615433 -24.82232954 15.42081092 -36.1875 21.875 C-38.08196926 22.94802611 -39.97649829 24.02094671 -41.87109375 25.09375 C-44.31950995 26.48024051 -46.76749123 27.8673432 -49.21142578 29.26171875 C-51.05232037 30.30931694 -52.89956316 31.34438375 -54.75 32.375 C-55.71421875 32.91898437 -56.6784375 33.46296875 -57.671875 34.0234375 C-60 35 -60 35 -63 34 C-61.47005208 33.14322917 -59.94010417 32.28645833 -58.41015625 31.4296875 C-57.41000488 30.86958984 -56.40985352 30.30949219 -55.37939453 29.73242188 C-53.1447383 28.4810407 -50.91003686 27.22974026 -48.67529297 25.97851562 C-42.83584115 22.7089409 -36.99714274 19.43803758 -31.16015625 16.1640625 C-30.06372803 15.54934082 -28.9672998 14.93461914 -27.83764648 14.30126953 C-25.75484307 13.13348143 -23.67230686 11.96521658 -21.59008789 10.79638672 C-18.72934602 9.19284363 -15.86518007 7.59559701 -13 6 C-11.97745117 5.42636719 -10.95490234 4.85273438 -9.90136719 4.26171875 C-8.41491699 3.43607422 -8.41491699 3.43607422 -6.8984375 2.59375 C-6.00560059 2.09552734 -5.11276367 1.59730469 -4.19287109 1.08398438 C-2 0 -2 0 0 0 Z " fill="#1F1F1F" transform="translate(746,432)"/>
<path d="M0 0 C1.19625 -0.00257813 2.3925 -0.00515625 3.625 -0.0078125 C6.55327693 0.10742062 9.15786976 0.44676437 12 1.125 C12 1.785 12 2.445 12 3.125 C12.66 3.125 13.32 3.125 14 3.125 C14.33859902 9.29596719 13.08339806 14.61833809 11.5 20.5625 C11.14228516 21.94598633 11.14228516 21.94598633 10.77734375 23.35742188 C10.19238772 25.61535216 9.59979704 27.87097547 9 30.125 C8.34 30.125 7.68 30.125 7 30.125 C7.70941377 24.56170254 8.81601851 19.15351955 10.0625 13.6875 C10.24876953 12.86056641 10.43503906 12.03363281 10.62695312 11.18164062 C11.0822005 9.16220996 11.54075861 7.14352613 12 5.125 C11.34 5.125 10.68 5.125 10 5.125 C10 4.465 10 3.805 10 3.125 C4.06 3.125 -1.88 3.125 -8 3.125 C-9.32 5.435 -10.64 7.745 -12 10.125 C-12.33 10.125 -12.66 10.125 -13 10.125 C-12.67 7.155 -12.34 4.185 -12 1.125 C-7.95038003 0.15861342 -4.15797593 -0.00896116 0 0 Z " fill="#272727" transform="translate(629,326.875)"/>
<path d="M0 0 C-2.87458403 1.58408932 -5.74971693 3.16717989 -8.625 4.75 C-9.51493652 5.24008545 -10.40487305 5.7301709 -11.32177734 6.23510742 C-16.16588913 8.90017049 -21.01523452 11.55498348 -25.875 14.19140625 C-26.83583496 14.7131543 -27.79666992 15.23490234 -28.78662109 15.77246094 C-30.62708938 16.77105667 -32.46850468 17.76790972 -34.31103516 18.76269531 C-39.65567765 21.66410131 -44.85276519 24.71558091 -49.98193359 27.98510742 C-50.98087646 28.48747925 -50.98087646 28.48747925 -52 29 C-52.66 28.67 -53.32 28.34 -54 28 C-51.6806591 25.43330036 -49.3153054 23.93371812 -46.265625 22.3203125 C-44.83138184 21.55388428 -44.83138184 21.55388428 -43.36816406 20.77197266 C-42.33916992 20.22847168 -41.31017578 19.6849707 -40.25 19.125 C-33.59070464 15.58020898 -26.96044629 12.01006535 -20.4375 8.21875 C-18.87854004 7.31552002 -18.87854004 7.31552002 -17.28808594 6.39404297 C-15.29078406 5.23103675 -13.29903265 4.05843598 -11.31347656 2.87548828 C-9.95947754 2.09020752 -9.95947754 2.09020752 -8.578125 1.2890625 C-7.39331543 0.58837646 -7.39331543 0.58837646 -6.18457031 -0.12646484 C-3.64193772 -1.14317689 -2.52337755 -0.94680577 0 0 Z " fill="#202020" transform="translate(532,383)"/>
<path d="M0 0 C18.03457077 8.9052776 35.54637346 19.02148227 53 29 C50.47662245 29.94680577 49.35806228 30.14317689 46.81542969 29.12646484 C46.02555664 28.65934082 45.23568359 28.1922168 44.421875 27.7109375 C43.51912842 27.18749756 42.61638184 26.66405762 41.6862793 26.12475586 C40.71730713 25.54733643 39.74833496 24.96991699 38.75 24.375 C36.69026042 23.17327819 34.62900976 21.97414332 32.56640625 20.77734375 C31.49535645 20.15456543 30.42430664 19.53178711 29.32080078 18.89013672 C25.98245406 16.99001318 22.61174354 15.17202705 19.21484375 13.37890625 C18.12268555 12.80156738 17.03052734 12.22422852 15.90527344 11.62939453 C13.78911105 10.51672341 11.66875436 9.41198676 9.54394531 8.31591797 C8.58456055 7.80818848 7.62517578 7.30045898 6.63671875 6.77734375 C5.78811279 6.33640381 4.93950684 5.89546387 4.06518555 5.44116211 C1.76902971 3.83882048 1.00323131 2.57998398 0 0 Z " fill="#1F1F20" transform="translate(664,387)"/>
<path d="M0 0 C0.33 0 0.66 0 1 0 C0.96447021 0.56170898 0.92894043 1.12341797 0.89233398 1.70214844 C0.07025549 15.23419174 0.046636 28.47689833 1 42 C0.34 41.67 -0.32 41.34 -1 41 C-4.35004744 28.22018939 -4.11907477 13.79503663 -1 1 C-0.67 0.67 -0.34 0.34 0 0 Z " fill="#2C2D2E" transform="translate(262,385)"/>
<path d="M0 0 C0.33 0 0.66 0 1 0 C1.14554346 3.08283443 1.23413821 6.16478439 1.3125 9.25 C1.35439453 10.12269531 1.39628906 10.99539063 1.43945312 11.89453125 C1.45556641 12.73886719 1.47167969 13.58320313 1.48828125 14.453125 C1.51446533 15.22817383 1.54064941 16.00322266 1.56762695 16.80175781 C0.46354263 21.07753212 -3.57019426 22.73983163 -7.15039062 24.90698242 C-8.31610774 25.56167331 -9.48487661 26.21095272 -10.65625 26.85546875 C-11.2810022 27.20257401 -11.90575439 27.54967926 -12.54943848 27.90730286 C-13.86252364 28.63485709 -15.17696064 29.35997638 -16.49267578 30.08276367 C-18.49860705 31.18673339 -20.49744745 32.30282924 -22.49609375 33.41992188 C-23.77823477 34.12834863 -25.06077373 34.83605577 -26.34375 35.54296875 C-27.23302185 36.0413752 -27.23302185 36.0413752 -28.14025879 36.54985046 C-31.4068832 38.32969188 -34.30670193 39.49680112 -38 40 C-34.65855197 37.20096044 -31.35193878 34.95521371 -27.5078125 32.90625 C-26.47269531 32.35066406 -25.43757812 31.79507812 -24.37109375 31.22265625 C-22.76427734 30.36994141 -22.76427734 30.36994141 -21.125 29.5 C-17.08073155 27.33815469 -13.03800021 25.17353375 -9 23 C-8.24686523 22.59523438 -7.49373047 22.19046875 -6.71777344 21.7734375 C-3.25847089 20.01215411 -3.25847089 20.01215411 -1 17 C-0.76725791 14.12089412 -0.58027243 11.25853505 -0.4375 8.375 C-0.37272461 7.17230469 -0.37272461 7.17230469 -0.30664062 5.9453125 C-0.20048543 3.9637489 -0.09973145 1.98189729 0 0 Z " fill="#171718" transform="translate(567,369)"/>
<path d="M0 0 C2.3125 -0.25 2.3125 -0.25 5 0 C7.01567727 1.78748739 7.9052942 3.23181991 8.23706055 5.92285156 C8.29543482 8.20582095 8.26131089 10.46754017 8.1875 12.75 C8.17396484 13.54277344 8.16042969 14.33554687 8.14648438 15.15234375 C8.11125223 17.10185564 8.05744821 19.05101626 8 21 C6.02 21.99 6.02 21.99 4 23 C4 16.73 4 10.46 4 4 C3.01 3.67 2.02 3.34 1 3 C1.33 2.34 1.66 1.68 2 1 C1.34 0.67 0.68 0.34 0 0 Z " fill="#3E3F3F" transform="translate(561,364)"/>
<path d="M0 0 C0.33 0 0.66 0 1 0 C1.66 5.61 2.32 11.22 3 17 C8.58066663 17.21808774 8.58066663 17.21808774 12.75 15 C16 13 16 13 18 13 C18 13.66 18 14.32 18 15 C16.14173522 16.09150504 14.26247489 17.14732223 12.375 18.1875 C11.33085938 18.77917969 10.28671875 19.37085938 9.2109375 19.98046875 C6 21 6 21 2.6640625 19.92578125 C0 18 0 18 -0.8671875 16.16015625 C-1.0259706 13.57759582 -1.13204344 11.02596589 -1.125 8.4375 C-1.12757813 7.48746094 -1.13015625 6.53742188 -1.1328125 5.55859375 C-1 3 -1 3 0 0 Z " fill="#2F3031" transform="translate(663,455)"/>
<path d="M0 0 C0.495 0.99 0.495 0.99 1 2 C-0.14855469 2.01417969 -1.29710937 2.02835937 -2.48046875 2.04296875 C-11.60135294 2.27931211 -18.98793836 3.10575038 -27.3984375 6.84375 C-29.61868311 7.83052582 -31.63118153 8.50602838 -34 9 C-34 8.34 -34 7.68 -34 7 C-22.18966091 0.65920319 -13.11155114 -0.28641738 0 0 Z " fill="#2B2C2B" transform="translate(405,340)"/>
<path d="M0 0 C0.33 0 0.66 0 1 0 C0.86061293 4.37523025 0.71235541 8.75011678 0.5625 13.125 C0.52318359 14.3625 0.48386719 15.6 0.44335938 16.875 C0.40146484 18.07382812 0.35957031 19.27265625 0.31640625 20.5078125 C0.27974854 21.60754395 0.24309082 22.70727539 0.20532227 23.84033203 C0.00316521 26.95129116 -0.43289894 29.93644338 -1 33 C-5.00193729 25.91720623 -2.8982961 17.20917914 -2.0625 9.4375 C-1.97581055 8.62716309 -1.88912109 7.81682617 -1.79980469 6.98193359 C-1.12544361 1.12544361 -1.12544361 1.12544361 0 0 Z " fill="#2F3030" transform="translate(267,511)"/>
<path d="M0 0 C4.07866166 0.59218318 7.00730627 1.94303117 10.5625 4 C14.2217495 6.1715919 14.2217495 6.1715919 18.22265625 7.46484375 C20 8 20 8 21.1171875 9.56640625 C23.23184433 15.13645595 22.91156996 18.36589907 21 24 C20.67 24 20.34 24 20 24 C20.14824219 23.26136719 20.29648437 22.52273438 20.44921875 21.76171875 C20.75434214 17.82512682 20.59780007 15.65812121 19 12 C13.92524496 7.66909312 7.70855703 4.80493602 1.72827148 1.93286133 C1.15794189 1.62501709 0.5876123 1.31717285 0 1 C0 0.67 0 0.34 0 0 Z " fill="#222222" transform="translate(542,440)"/>
<path d="M0 0 C8.38930655 3.21494968 13.72928342 14.73720995 17.22265625 22.4296875 C18.11782934 25.38960656 18.13898123 27.9244798 18 31 C17.34 30.67 16.68 30.34 16 30 C15.359375 28.06640625 15.359375 28.06640625 14.75 25.5625 C12.26871269 16.865588 7.48782378 10.10835066 1.3203125 3.59375 C0 2 0 2 0 0 Z " fill="#292A2A" transform="translate(425,351)"/>
<path d="M0 0 C8.90358964 4.30503235 17.45039698 9.0370107 26 14 C28.33143091 15.33669474 30.66555626 16.66856821 33 18 C30.3060947 19.06648482 29.25503489 19.10493282 26.52978516 17.98364258 C25.62534668 17.45923584 24.7209082 16.9348291 23.7890625 16.39453125 C22.79132812 15.82283203 21.79359375 15.25113281 20.765625 14.66210938 C19.72921875 14.05173828 18.6928125 13.44136719 17.625 12.8125 C16.59632813 12.22146484 15.56765625 11.63042969 14.5078125 11.02148438 C3.75603018 4.80734215 3.75603018 4.80734215 0 2 C0 1.34 0 0.68 0 0 Z " fill="#1E1E1E" transform="translate(505,444)"/>
<path d="M0 0 C0.33 0 0.66 0 1 0 C0.43240789 7.00509246 -1.04653541 13.3410589 -3.0625 20.0625 C-3.34416016 21.02349609 -3.62582031 21.98449219 -3.91601562 22.97460938 C-4.60401284 25.31846429 -5.2987601 27.66007993 -6 30 C-6.33 30 -6.66 30 -7 30 C-7.3859414 21.12334776 -5.32698765 13.17884463 -2 5 C-1.608125 4.01 -1.21625 3.02 -0.8125 2 C-0.544375 1.34 -0.27625 0.68 0 0 Z " fill="#212121" transform="translate(581,466)"/>
<path d="M0 0 C0.87785156 0.58394531 0.87785156 0.58394531 1.7734375 1.1796875 C10.58872726 6.92418563 19.76954904 11.96007923 29 17 C26.39342595 18.00033653 25.31169051 18.12643554 22.68164062 17.05957031 C21.84826172 16.57069336 21.01488281 16.08181641 20.15625 15.578125 C19.23972656 15.04703125 18.32320313 14.5159375 17.37890625 13.96875 C16.42886719 13.4015625 15.47882813 12.834375 14.5 12.25 C13.54996094 11.69828125 12.59992188 11.1465625 11.62109375 10.578125 C2.59220712 5.29540089 2.59220712 5.29540089 0 3 C0 2.01 0 1.02 0 0 Z " fill="#232323" transform="translate(475,426)"/>
<path d="M0 0 C0.66 0 1.32 0 2 0 C2.33 1.98 2.66 3.96 3 6 C9.93 6.33 16.86 6.66 24 7 C23.67 7.66 23.34 8.32 23 9 C16.04851882 10.29776029 8.92807374 10.3409175 2 9 C-0.29013653 5.5647952 -0.17842973 4.014669 0 0 Z " fill="#1E1B1C" transform="translate(572,497)"/>
<path d="M0 0 C0.99 0.33 1.98 0.66 3 1 C2.67 1.33 2.34 1.66 2 2 C1.84379445 3.41327947 1.74943827 4.8335459 1.68359375 6.25390625 C1.64169922 7.10791016 1.59980469 7.96191406 1.55664062 8.84179688 C1.49766602 10.18854492 1.49766602 10.18854492 1.4375 11.5625 C1.39431641 12.46419922 1.35113281 13.36589844 1.30664062 14.29492188 C1.20021858 16.52978485 1.09820012 18.76476308 1 21 C0.34 21 -0.32 21 -1 21 C-1 20.34 -1 19.68 -1 19 C-1.66 18.67 -2.32 18.34 -3 18 C-2.6919856 15.37440156 -2.37879818 12.74960194 -2.0625 10.125 C-1.97548828 9.37863281 -1.88847656 8.63226563 -1.79882812 7.86328125 C-1.11328125 2.2265625 -1.11328125 2.2265625 0 0 Z " fill="#292A2A" transform="translate(664,365)"/>
<path d="M0 0 C3.52861799 0.57269953 6.24153331 1.46897728 9.35546875 3.21484375 C10.14244141 3.65376953 10.92941406 4.09269531 11.74023438 4.54492188 C12.54783203 5.00447266 13.35542969 5.46402344 14.1875 5.9375 C15.00669922 6.39318359 15.82589844 6.84886719 16.66992188 7.31835938 C22.71851504 10.71851504 22.71851504 10.71851504 25 13 C24.67 13.99 24.34 14.98 24 16 C23.34 15.01 22.68 14.02 22 13 C19.73909063 11.53436058 19.73909063 11.53436058 17.0625 10.1875 C16.08796875 9.67316406 15.1134375 9.15882813 14.109375 8.62890625 C13.08328125 8.09136719 12.0571875 7.55382812 11 7 C8.93546289 5.87874278 6.87285438 4.75392474 4.8125 3.625 C3.89082031 3.12226563 2.96914063 2.61953125 2.01953125 2.1015625 C1.35308594 1.73804688 0.68664062 1.37453125 0 1 C0 0.67 0 0.34 0 0 Z " fill="#1D1D1E" transform="translate(731,399)"/>
<path d="M0 0 C0 0.66 0 1.32 0 2 C-2.68421327 2.8454215 -5.37156768 3.67647233 -8.0625 4.5 C-9.19075195 4.85771484 -9.19075195 4.85771484 -10.34179688 5.22265625 C-15.07832621 6.65796817 -19.05218166 7.26283232 -24 7 C-20.32634213 4.55089476 -16.77135062 3.59065459 -12.5625 2.375 C-11.79873047 2.14554688 -11.03496094 1.91609375 -10.24804688 1.6796875 C-9.50748047 1.463125 -8.76691406 1.2465625 -8.00390625 1.0234375 C-7.33174072 0.82669434 -6.6595752 0.62995117 -5.96704102 0.42724609 C-4 0 -4 0 0 0 Z " fill="#292B2A" transform="translate(339,579)"/>
<path d="M0 0 C0 0.33 0 0.66 0 1 C-9.9378251 2.28230001 -20.11507053 2.8871229 -30 1 C-30 0.67 -30 0.34 -30 0 C-20.03780429 -1.81130831 -10.01087061 -1.10356054 0 0 Z " fill="#4F5B7C" transform="translate(668,573)"/>
<path d="M0 0 C7.48280954 0.4676756 13.54541458 7.3636024 19 12 C18.67 12.99 18.34 13.98 18 15 C17.62230469 14.57589844 17.24460937 14.15179688 16.85546875 13.71484375 C12.43900945 9.00878056 7.68580586 5.69968965 2.16015625 2.3828125 C1.44730469 1.92648437 0.73445313 1.47015625 0 1 C0 0.67 0 0.34 0 0 Z " fill="#262727" transform="translate(335,346)"/>
<path d="M0 0 C0.66 0.33 1.32 0.66 2 1 C-1.2878978 2.84015498 -4.58091326 4.67095047 -7.875 6.5 C-8.81214844 7.02464844 -9.74929688 7.54929687 -10.71484375 8.08984375 C-11.61074219 8.58613281 -12.50664063 9.08242188 -13.4296875 9.59375 C-14.25710449 10.05458984 -15.08452148 10.51542969 -15.93701172 10.99023438 C-18 12 -18 12 -20 12 C-20 11.34 -20 10.68 -20 10 C-17.23116804 8.51706418 -14.4596027 7.03931138 -11.6875 5.5625 C-10.90181641 5.14162109 -10.11613281 4.72074219 -9.30664062 4.28710938 C-8.54931641 3.88427734 -7.79199219 3.48144531 -7.01171875 3.06640625 C-6.31522217 2.69459229 -5.61872559 2.32277832 -4.90112305 1.93969727 C-3 1 -3 1 0 0 Z " fill="#1D1E1E" transform="translate(718,421)"/>
<path d="M0 0 C4.86872054 0.59559106 8.59328841 2.72477415 12.8125 5.0625 C13.50537109 5.43955078 14.19824219 5.81660156 14.91210938 6.20507812 C16.61128985 7.13083852 18.30609425 8.06462312 20 9 C20 9.66 20 10.32 20 11 C15.08558588 9.56347895 10.99761642 7.45840385 6.625 4.875 C5.98433594 4.50246094 5.34367188 4.12992187 4.68359375 3.74609375 C3.11951523 2.83565998 1.55934466 1.91851809 0 1 C0 0.67 0 0.34 0 0 Z " fill="#272726" transform="translate(536,463)"/>
<path d="M0 0 C0.76171875 1.6171875 0.76171875 1.6171875 1 4 C-0.31462243 6.23752892 -1.59163877 8.10994941 -3.1875 10.125 C-3.58775391 10.66253906 -3.98800781 11.20007813 -4.40039062 11.75390625 C-6.63912767 14.66390157 -8.5261122 16.70627627 -12 18 C-6 9 -6 9 0 0 Z " fill="#242524" transform="translate(422,513)"/>
<path d="M0 0 C0.33 0 0.66 0 1 0 C0.41509121 6.14154225 -0.54066252 12.00679849 -2 18 C-2.66 18 -3.32 18 -4 18 C-3.61020794 11.44074057 -2.57886807 6.05473373 0 0 Z " fill="#1E1F1F" transform="translate(586,447)"/>
<path d="M0 0 C0.66 0 1.32 0 2 0 C2.47592398 4.85442463 2.76906817 7.94527793 -0.1875 12 C-2.96043396 13.97186415 -4.64710718 14.71260919 -8 15 C-7.21625 14.38125 -6.4325 13.7625 -5.625 13.125 C-2.15368729 10.57679095 -2.15368729 10.57679095 -0.5859375 6.8359375 C-0.51632812 6.02382813 -0.44671875 5.21171875 -0.375 4.375 C-0.26285156 3.14910156 -0.26285156 3.14910156 -0.1484375 1.8984375 C-0.09945312 1.27195312 -0.05046875 0.64546875 0 0 Z " fill="#212122" transform="translate(756,416)"/>
<path d="M0 0 C0.66 0.33 1.32 0.66 2 1 C1.505 1.61875 1.01 2.2375 0.5 2.875 C-1.35776939 6.7453529 -1.15690739 9.5728915 -0.91015625 13.79296875 C-1 16 -1 16 -3 18 C-4.85035348 14.29929304 -4.4754747 10.03844746 -4 6 C-2.91546245 3.58465436 -1.72477676 2.0481724 0 0 Z " fill="#323232" transform="translate(477,410)"/>
<path d="M0 0 C6.16356805 1.6658292 11.48259656 4.87805286 17 8 C17 8.66 17 9.32 17 10 C10.83643195 8.3341708 5.51740344 5.12194714 0 2 C0 1.34 0 0.68 0 0 Z " fill="#1D1D1E" transform="translate(712,388)"/>
<path d="M0 0 C6.25166062 0.33491039 11.27512744 1.65211195 16 6 C16 6.99 16 7.98 16 9 C15.26394531 8.59007812 14.52789062 8.18015625 13.76953125 7.7578125 C12.30580078 6.94957031 12.30580078 6.94957031 10.8125 6.125 C9.84957031 5.59132813 8.88664062 5.05765625 7.89453125 4.5078125 C5.30260482 3.1576322 2.73238902 2.02901671 0 1 C0 0.67 0 0.34 0 0 Z " fill="#282929" transform="translate(407,342)"/>
<path d="M0 0 C4.14298667 0.59834725 7.18194377 2.00664285 10.8125 4.0625 C11.78832031 4.61035156 12.76414062 5.15820312 13.76953125 5.72265625 C14.50558594 6.14417969 15.24164062 6.56570313 16 7 C16 7.66 16 8.32 16 9 C10.0942118 7.44584521 5.02261107 4.40465533 0 1 C0 0.67 0 0.34 0 0 Z " fill="#212222" transform="translate(695,379)"/>
<path d="M0 0 C0.66 0.33 1.32 0.66 2 1 C-1.2119852 6.02745509 -5.38204532 8.32979726 -11 10 C-11.66 9.67 -12.32 9.34 -13 9 C-8.71 6.03 -4.42 3.06 0 0 Z " fill="#1F1F1F" transform="translate(378,547)"/>
<path d="M0 0 C0.66 0 1.32 0 2 0 C-2 13 -2 13 -6 17 C-5.49487476 10.77012202 -2.67395877 5.54525767 0 0 Z " fill="#252627" transform="translate(280,471)"/>
<path d="M0 0 C0 0.66 0 1.32 0 2 C-1.90607285 3.06092734 -3.82532746 4.09820101 -5.75 5.125 C-6.81734375 5.70507812 -7.8846875 6.28515625 -8.984375 6.8828125 C-12 8 -12 8 -14.390625 7.1796875 C-15.18726563 6.59574219 -15.18726563 6.59574219 -16 6 C-16 5.67 -16 5.34 -16 5 C-15.11248047 4.83564453 -15.11248047 4.83564453 -14.20703125 4.66796875 C-9.52715502 3.72893975 -4.30916551 0 0 0 Z " fill="#202021" transform="translate(681,468)"/>
<path d="M0 0 C6.31631828 0.40316925 10.64993984 2.71232131 16 6 C16 6.66 16 7.32 16 8 C10.31497465 6.35433477 5.23318364 3.70967216 0 1 C0 0.67 0 0.34 0 0 Z " fill="#1F2020" transform="translate(668,365)"/>
<path d="M0 0 C2.69881542 2.49121423 5.03977213 5.18583045 7.3125 8.0625 C7.84488281 8.73410156 8.37726563 9.40570313 8.92578125 10.09765625 C9.28027344 10.72542969 9.63476562 11.35320312 10 12 C9.67 12.99 9.34 13.98 9 15 C9 14.34 9 13.68 9 13 C8.01 12.67 7.02 12.34 6 12 C4.39453125 10.0390625 4.39453125 10.0390625 2.8125 7.625 C2.28269531 6.83351563 1.75289063 6.04203125 1.20703125 5.2265625 C0 3 0 3 0 0 Z " fill="#272728" transform="translate(274,453)"/>
<path d="M0 0 C0.33 0 0.66 0 1 0 C0.52013969 5.56890517 -0.29915181 10.67067568 -2 16 C-2.66 16 -3.32 16 -4 16 C-3.52546129 13.51986371 -3.04561015 11.04096744 -2.5625 8.5625 C-2.42779297 7.85544922 -2.29308594 7.14839844 -2.15429688 6.41992188 C-1.11328125 1.11328125 -1.11328125 1.11328125 0 0 Z " fill="#1D1D1D" transform="translate(601,487)"/>
<path d="M0 0 C0.99 0 1.98 0 3 0 C3 0.99 3 1.98 3 3 C5.64 4.32 8.28 5.64 11 7 C10.01 7.66 9.02 8.32 8 9 C5.03 7.35 2.06 5.7 -1 4 C-0.67 2.68 -0.34 1.36 0 0 Z " fill="#2F2E2E" transform="translate(533,432)"/>
<path d="M0 0 C0.66 0 1.32 0 2 0 C1.54901762 1.93922422 1.08894441 3.87633594 0.625 5.8125 C0.36976563 6.89144531 0.11453125 7.97039062 -0.1484375 9.08203125 C-1 12 -1 12 -3 15 C-3.33 12.69 -3.66 10.38 -4 8 C-3.34 8 -2.68 8 -2 8 C-1.855625 6.865625 -1.71125 5.73125 -1.5625 4.5625 C-1 1 -1 1 0 0 Z " fill="#1E1E1E" transform="translate(607,368)"/>
<path d="M0 0 C0.66 0.33 1.32 0.66 2 1 C-1.18453477 3.63861452 -4.27084628 6.1832328 -8 8 C-10.15234375 7.57421875 -10.15234375 7.57421875 -12 7 C-10.04754815 5.80285445 -8.08785003 4.61751926 -6.125 3.4375 C-5.03445313 2.77621094 -3.94390625 2.11492188 -2.8203125 1.43359375 C-1.88960938 0.96050781 -0.95890625 0.48742187 0 0 Z " fill="#272927" transform="translate(376,560)"/>
<path d="M0 0 C0.33 0.99 0.66 1.98 1 3 C1.7425 3.144375 2.485 3.28875 3.25 3.4375 C5.52027739 3.90187492 7.75759479 4.41863569 10 5 C10.33 6.32 10.66 7.64 11 9 C6.69235185 7.43358249 2.93828536 5.31663844 -1 3 C-0.67 2.01 -0.34 1.02 0 0 Z " fill="#202121" transform="translate(509,419)"/>
<path d="M0 0 C0 0.66 0 1.32 0 2 C-1.76371818 3.03307771 -3.53625033 4.05112049 -5.3125 5.0625 C-6.79169922 5.91521484 -6.79169922 5.91521484 -8.30078125 6.78515625 C-11 8 -11 8 -14 7 C-12.04480616 5.82807953 -10.0857461 4.6626071 -8.125 3.5 C-7.03445313 2.8503125 -5.94390625 2.200625 -4.8203125 1.53125 C-2 0 -2 0 0 0 Z " fill="#202020" transform="translate(527,410)"/>
<path d="M0 0 C0.66 0 1.32 0 2 0 C1.40380045 4.86896303 0.43023178 9.32790951 -1 14 C-1.33 14 -1.66 14 -2 14 C-2.21192221 8.80790596 -1.5912689 4.873261 0 0 Z " fill="#202020" transform="translate(602,384)"/>
<path d="M0 0 C2.60045875 2.3024119 3.84739183 4.49896677 5.1875 7.6875 C5.53167969 8.49574219 5.87585938 9.30398438 6.23046875 10.13671875 C6.48441406 10.75160156 6.73835938 11.36648438 7 12 C6.01 12 5.02 12 4 12 C3.32645501 10.56570999 2.66140299 9.12742943 2 7.6875 C1.62875 6.88699219 1.2575 6.08648437 0.875 5.26171875 C0 3 0 3 0 0 Z " fill="#272728" transform="translate(267,440)"/>
<path d="M0 0 C1.32 0.99 2.64 1.98 4 3 C3.25 10.625 3.25 10.625 1 14 C0.67 9.38 0.34 4.76 0 0 Z " fill="#414242" transform="translate(322,397)"/>
<path d="M0 0 C2 1 2 1 2.62109375 2.703125 C3.06955765 5.42164845 3.09529082 7.99557077 3.0625 10.75 C3.05347656 11.73484375 3.04445313 12.7196875 3.03515625 13.734375 C3.02355469 14.48203125 3.01195312 15.2296875 3 16 C2.67 16 2.34 16 2 16 C0.80911014 10.61972975 -0.2919519 5.54708616 0 0 Z " fill="#191A1A" transform="translate(443,383)"/>
<path d="M0 0 C2 1 2 1 2.68359375 2.796875 C3.211122 6.47003466 2.00363927 9.45774375 1 13 C0.67 13 0.34 13 0 13 C0 8.71 0 4.42 0 0 Z " fill="#191919" transform="translate(562,451)"/>
<path d="M0 0 C1.98 0 3.96 0 6 0 C4.02 2.31 2.04 4.62 0 7 C-0.99 6.67 -1.98 6.34 -3 6 C-1.68 5.34 -0.36 4.68 1 4 C0.67 2.68 0.34 1.36 0 0 Z " fill="#2D302D" transform="translate(393,544)"/>
<path d="M0 0 C3.94120709 0.56302958 6.7508723 1.6791945 10 4 C10 4.66 10 5.32 10 6 C5.56909529 4.79157144 3.01887244 3.48331435 0 0 Z " fill="#242423" transform="translate(521,428)"/>
<path d="M0 0 C-1.22053859 3.66161578 -2.36782304 4.16270474 -5.5625 6.1875 C-6.38878906 6.71730469 -7.21507812 7.24710938 -8.06640625 7.79296875 C-8.70449219 8.19128906 -9.34257812 8.58960938 -10 9 C-8.22001491 4.99503355 -4.82420328 0 0 0 Z " fill="#EEEEED" transform="translate(386,540)"/>
<path d="M0 0 C-1.45537568 0.83848804 -2.91440373 1.67063934 -4.375 2.5 C-5.59316406 3.19609375 -5.59316406 3.19609375 -6.8359375 3.90625 C-9 5 -9 5 -11 5 C-11 4.34 -11 3.68 -11 3 C-4.03571429 -1.41964286 -4.03571429 -1.41964286 0 0 Z " fill="#1C1B1C" transform="translate(682,443)"/>
<path d="M0 0 C-4.95 2.97 -4.95 2.97 -10 6 C-10 5.01 -10 4.02 -10 3 C-4.85106383 -1.21276596 -4.85106383 -1.21276596 0 0 Z " fill="#252525" transform="translate(293,347)"/>
<path d="M0 0 C1.32 0.33 2.64 0.66 4 1 C2.02 2.98 0.04 4.96 -2 7 C-2.66 6.67 -3.32 6.34 -4 6 C-3.525625 5.38125 -3.05125 4.7625 -2.5625 4.125 C-0.97582559 2.09294454 -0.97582559 2.09294454 0 0 Z " fill="#444443" transform="translate(391,536)"/>
<path d="M0 0 C0 0.66 0 1.32 0 2 C-2.8125 4.1875 -2.8125 4.1875 -6 6 C-6.99 5.67 -7.98 5.34 -9 5 C-7.87926138 4.16094435 -6.75325453 3.32892169 -5.625 2.5 C-4.99851562 2.0359375 -4.37203125 1.571875 -3.7265625 1.09375 C-2 0 -2 0 0 0 Z " fill="#292B29" transform="translate(388,553)"/>
<path d="M0 0 C0.33 0 0.66 0 1 0 C1 1.65 1 3.3 1 5 C0.67 5 0.34 5 0 5 C0 3.35 0 1.7 0 0 Z " fill="#797A79" transform="translate(257,402)"/>
<path d="M0 0 C0.66 0.66 1.32 1.32 2 2 C1.01 2.495 1.01 2.495 0 3 C0 2.01 0 1.02 0 0 Z " fill="#646262" transform="translate(480,433)"/>
<path d="M0 0 C0.66 0.66 1.32 1.32 2 2 C1.01 2.495 1.01 2.495 0 3 C0 2.01 0 1.02 0 0 Z " fill="#60605E" transform="translate(487,401)"/>
<path d="M0 0 C0.66 0.33 1.32 0.66 2 1 C1.01 1 0.02 1 -1 1 C-0.67 0.67 -0.34 0.34 0 0 Z " fill="#5D5C5D" transform="translate(560,362)"/>
<path d="" fill="#5B5858" transform="translate(0,0)"/>
<path d="M0 0 C0.66 0 1.32 0 2 0 C1.67 0.66 1.34 1.32 1 2 C0.67 1.34 0.34 0.68 0 0 Z " fill="#545354" transform="translate(725,392)"/>
<path d="" fill="#545556" transform="translate(0,0)"/>
<path d="M0 0 C2 1 2 1 2 1 Z " fill="#7F7F7D" transform="translate(304,590)"/>
<path d="" fill="#7B7B7A" transform="translate(0,0)"/>
<path d="" fill="#7B7B79" transform="translate(0,0)"/>
<path d="" fill="#7B7C7B" transform="translate(0,0)"/>
<path d="M0 0 C2 1 2 1 2 1 Z " fill="#665F5B" transform="translate(569,499)"/>
<path d="" fill="#848582" transform="translate(0,0)"/>
<path d="M0 0 C2 1 2 1 2 1 Z " fill="#625E5E" transform="translate(541,468)"/>
<path d="" fill="#5A5658" transform="translate(0,0)"/>
<path d="" fill="#7C7C7A" transform="translate(0,0)"/>
<path d="" fill="#7C7C7B" transform="translate(0,0)"/>
<path d="M0 0 C2 1 2 1 2 1 Z " fill="#5F5D5C" transform="translate(514,453)"/>
<path d="M0 0 C2 1 2 1 2 1 Z " fill="#828180" transform="translate(267,447)"/>
<path d="" fill="#7C7F7C" transform="translate(0,0)"/>
<path d="" fill="#595758" transform="translate(0,0)"/>
<path d="" fill="#7C7B7C" transform="translate(0,0)"/>
<path d="M0 0 C2 1 2 1 2 1 Z " fill="#585858" transform="translate(740,401)"/>
<path d="" fill="#7E7E7D" transform="translate(0,0)"/>
<path d="" fill="#545354" transform="translate(0,0)"/>
<path d="" fill="#5B5C5B" transform="translate(0,0)"/>
<path d="M0 0 C2 1 2 1 2 1 Z " fill="#5D5D5D" transform="translate(529,376)"/>
<path d="" fill="#585858" transform="translate(0,0)"/>
<path d="" fill="#555452" transform="translate(0,0)"/>
<path d="M0 0 C2 1 2 1 2 1 Z " fill="#787979" transform="translate(273,354)"/>
<path d="" fill="#545554" transform="translate(0,0)"/>
<path d="" fill="#5D5D5C" transform="translate(0,0)"/>
<path d="" fill="#79A276" transform="translate(0,0)"/>
<path d="" fill="#717998" transform="translate(0,0)"/>
<path d="" fill="#7F817E" transform="translate(0,0)"/>
<path d="" fill="#828480" transform="translate(0,0)"/>
<path d="" fill="#7F837F" transform="translate(0,0)"/>
<path d="" fill="#797A78" transform="translate(0,0)"/>
<path d="" fill="#82877E" transform="translate(0,0)"/>
<path d="" fill="#80857D" transform="translate(0,0)"/>
<path d="" fill="#7AA477" transform="translate(0,0)"/>
<path d="" fill="#7B7C7C" transform="translate(0,0)"/>
<path d="" fill="#7E8A7E" transform="translate(0,0)"/>
<path d="" fill="#7D7D7B" transform="translate(0,0)"/>
<path d="" fill="#B44C54" transform="translate(0,0)"/>
<path d="" fill="#B94D53" transform="translate(0,0)"/>
<path d="" fill="#7CA277" transform="translate(0,0)"/>
<path d="" fill="#8A6783" transform="translate(0,0)"/>
<path d="" fill="#B64A51" transform="translate(0,0)"/>
<path d="" fill="#A18B6B" transform="translate(0,0)"/>
<path d="" fill="#7A7B79" transform="translate(0,0)"/>
<path d="" fill="#7D7E7D" transform="translate(0,0)"/>
<path d="" fill="#7D7C7C" transform="translate(0,0)"/>
<path d="" fill="#828B7D" transform="translate(0,0)"/>
<path d="" fill="#8B8E88" transform="translate(0,0)"/>
<path d="" fill="#8A8D87" transform="translate(0,0)"/>
<path d="" fill="#858484" transform="translate(0,0)"/>
<path d="" fill="#838282" transform="translate(0,0)"/>
<path d="" fill="#5E5D5B" transform="translate(0,0)"/>
<path d="" fill="#69615F" transform="translate(0,0)"/>
<path d="" fill="#818180" transform="translate(0,0)"/>
<path d="" fill="#615D5C" transform="translate(0,0)"/>
<path d="" fill="#828280" transform="translate(0,0)"/>
<path d="" fill="#625B5C" transform="translate(0,0)"/>
<path d="" fill="#5F5D5D" transform="translate(0,0)"/>
<path d="" fill="#5D5C59" transform="translate(0,0)"/>
<path d="" fill="#808080" transform="translate(0,0)"/>
<path d="" fill="#818482" transform="translate(0,0)"/>
<path d="" fill="#595A58" transform="translate(0,0)"/>
<path d="" fill="#7E7E7C" transform="translate(0,0)"/>
<path d="" fill="#7A7D7C" transform="translate(0,0)"/>
<path d="" fill="#636062" transform="translate(0,0)"/>
<path d="" fill="#625F5F" transform="translate(0,0)"/>
<path d="" fill="#626060" transform="translate(0,0)"/>
<path d="" fill="#585656" transform="translate(0,0)"/>
<path d="" fill="#605D5B" transform="translate(0,0)"/>
<path d="" fill="#7E7F7C" transform="translate(0,0)"/>
<path d="" fill="#7B7B7D" transform="translate(0,0)"/>
<path d="" fill="#605D5D" transform="translate(0,0)"/>
<path d="" fill="#5F5E5C" transform="translate(0,0)"/>
<path d="" fill="#5F5D5D" transform="translate(0,0)"/>
<path d="" fill="#5F5F5F" transform="translate(0,0)"/>
<path d="" fill="#5D5A5C" transform="translate(0,0)"/>
<path d="" fill="#635E5F" transform="translate(0,0)"/>
<path d="" fill="#595957" transform="translate(0,0)"/>
<path d="" fill="#5C5A5B" transform="translate(0,0)"/>
<path d="" fill="#616060" transform="translate(0,0)"/>
<path d="" fill="#7B7A7B" transform="translate(0,0)"/>
<path d="" fill="#5D5A5B" transform="translate(0,0)"/>
<path d="" fill="#858683" transform="translate(0,0)"/>
<path d="" fill="#595958" transform="translate(0,0)"/>
<path d="" fill="#616261" transform="translate(0,0)"/>
<path d="" fill="#5C5B5A" transform="translate(0,0)"/>
<path d="" fill="#575855" transform="translate(0,0)"/>
<path d="" fill="#605B5D" transform="translate(0,0)"/>
<path d="" fill="#585856" transform="translate(0,0)"/>
<path d="" fill="#575655" transform="translate(0,0)"/>
<path d="" fill="#5B5A5B" transform="translate(0,0)"/>
<path d="" fill="#61605D" transform="translate(0,0)"/>
<path d="" fill="#575659" transform="translate(0,0)"/>
<path d="" fill="#595856" transform="translate(0,0)"/>
<path d="" fill="#575757" transform="translate(0,0)"/>
<path d="" fill="#7B777B" transform="translate(0,0)"/>
<path d="" fill="#5B5859" transform="translate(0,0)"/>
<path d="" fill="#535354" transform="translate(0,0)"/>
<path d="" fill="#565856" transform="translate(0,0)"/>
<path d="" fill="#666463" transform="translate(0,0)"/>
<path d="" fill="#5A5A5A" transform="translate(0,0)"/>
<path d="" fill="#61605E" transform="translate(0,0)"/>
<path d="" fill="#575758" transform="translate(0,0)"/>
<path d="" fill="#656261" transform="translate(0,0)"/>
<path d="" fill="#656362" transform="translate(0,0)"/>
<path d="" fill="#565457" transform="translate(0,0)"/>
<path d="" fill="#595658" transform="translate(0,0)"/>
<path d="" fill="#545554" transform="translate(0,0)"/>
<path d="" fill="#575355" transform="translate(0,0)"/>
<path d="" fill="#545453" transform="translate(0,0)"/>
<path d="" fill="#5A5657" transform="translate(0,0)"/>
<path d="" fill="#7C7C7C" transform="translate(0,0)"/>
<path d="" fill="#595756" transform="translate(0,0)"/>
<path d="" fill="#676667" transform="translate(0,0)"/>
<path d="" fill="#787B7A" transform="translate(0,0)"/>
<path d="" fill="#5B5B58" transform="translate(0,0)"/>
<path d="" fill="#7D7D7D" transform="translate(0,0)"/>
<path d="" fill="#545554" transform="translate(0,0)"/>
<path d="" fill="#5B5757" transform="translate(0,0)"/>
<path d="" fill="#7A7C7B" transform="translate(0,0)"/>
<path d="" fill="#5A5C5D" transform="translate(0,0)"/>
<path d="" fill="#555250" transform="translate(0,0)"/>
<path d="" fill="#5C5D5B" transform="translate(0,0)"/>
<path d="" fill="#535453" transform="translate(0,0)"/>
<path d="" fill="#5B5858" transform="translate(0,0)"/>
<path d="" fill="#585554" transform="translate(0,0)"/>
<path d="" fill="#585857" transform="translate(0,0)"/>
<path d="" fill="#666666" transform="translate(0,0)"/>
<path d="" fill="#5F5D5C" transform="translate(0,0)"/>
<path d="" fill="#575655" transform="translate(0,0)"/>
<path d="" fill="#595857" transform="translate(0,0)"/>
<path d="" fill="#555252" transform="translate(0,0)"/>
<path d="" fill="#565654" transform="translate(0,0)"/>
<path d="" fill="#535455" transform="translate(0,0)"/>
<path d="" fill="#545251" transform="translate(0,0)"/>
<path d="" fill="#575556" transform="translate(0,0)"/>
<path d="" fill="#575255" transform="translate(0,0)"/>
<path d="" fill="#575655" transform="translate(0,0)"/>
<path d="" fill="#626160" transform="translate(0,0)"/>
<path d="" fill="#575654" transform="translate(0,0)"/>
<path d="" fill="#565456" transform="translate(0,0)"/>
<path d="" fill="#585759" transform="translate(0,0)"/>
<path d="" fill="#575555" transform="translate(0,0)"/>
<path d="" fill="#5E5C5C" transform="translate(0,0)"/>
<path d="" fill="#7C7E7E" transform="translate(0,0)"/>
<path d="" fill="#585555" transform="translate(0,0)"/>
<path d="" fill="#595958" transform="translate(0,0)"/>
<path d="" fill="#565756" transform="translate(0,0)"/>
<path d="" fill="#575856" transform="translate(0,0)"/>
<path d="" fill="#505050" transform="translate(0,0)"/>
<path d="" fill="#575856" transform="translate(0,0)"/>
<path d="" fill="#595C5A" transform="translate(0,0)"/>
<path d="" fill="#828381" transform="translate(0,0)"/>
<path d="" fill="#7E7F7E" transform="translate(0,0)"/>
<path d="" fill="#7C7F7C" transform="translate(0,0)"/>
<path d="" fill="#555655" transform="translate(0,0)"/>
<path d="" fill="#525555" transform="translate(0,0)"/>
<path d="" fill="#7C7D7D" transform="translate(0,0)"/>
<path d="" fill="#5E5D5B" transform="translate(0,0)"/>
<path d="" fill="#797B79" transform="translate(0,0)"/>
<path d="" fill="#545355" transform="translate(0,0)"/>
<path d="" fill="#5C5C5C" transform="translate(0,0)"/>
<path d="" fill="#565656" transform="translate(0,0)"/>
<path d="" fill="#797A7C" transform="translate(0,0)"/>
<path d="" fill="#59595B" transform="translate(0,0)"/>
<path d="" fill="#5F605E" transform="translate(0,0)"/>
<path d="" fill="#7D7A7B" transform="translate(0,0)"/>
<path d="" fill="#575655" transform="translate(0,0)"/>
<path d="" fill="#605E5D" transform="translate(0,0)"/>
<path d="" fill="#595756" transform="translate(0,0)"/>
<path d="" fill="#585556" transform="translate(0,0)"/>
<path d="" fill="#5D5D5C" transform="translate(0,0)"/>
<path d="" fill="#797B79" transform="translate(0,0)"/>
<path d="" fill="#605D60" transform="translate(0,0)"/>
<path d="" fill="#5D5F5F" transform="translate(0,0)"/>
<path d="" fill="#565755" transform="translate(0,0)"/>
<path d="" fill="#797B7A" transform="translate(0,0)"/>
<path d="" fill="#5A5757" transform="translate(0,0)"/>
<path d="" fill="#5D5B5D" transform="translate(0,0)"/>
<path d="" fill="#5A5759" transform="translate(0,0)"/>
<path d="" fill="#7B7B7B" transform="translate(0,0)"/>
<path d="" fill="#595A5A" transform="translate(0,0)"/>
<path d="" fill="#5E5E5D" transform="translate(0,0)"/>
<path d="" fill="#5C5C5B" transform="translate(0,0)"/>
<path d="" fill="#5E5C5A" transform="translate(0,0)"/>
<path d="" fill="#5C5A5C" transform="translate(0,0)"/>
<path d="" fill="#5E5D5E" transform="translate(0,0)"/>
<path d="" fill="#777977" transform="translate(0,0)"/>
<path d="" fill="#787A79" transform="translate(0,0)"/>
<path d="" fill="#5D5D5C" transform="translate(0,0)"/>
<path d="" fill="#595C5C" transform="translate(0,0)"/>
<path d="" fill="#5F5F5F" transform="translate(0,0)"/>
<path d="" fill="#7B7D7B" transform="translate(0,0)"/>
<path d="" fill="#7C7C7E" transform="translate(0,0)"/>
<path d="" fill="#565657" transform="translate(0,0)"/>
<path d="" fill="#7B7D7B" transform="translate(0,0)"/>
<path d="" fill="#585957" transform="translate(0,0)"/>
<path d="" fill="#7B7C7A" transform="translate(0,0)"/>
<path d="" fill="#7B7A79" transform="translate(0,0)"/>
<path d="" fill="#787A7B" transform="translate(0,0)"/>
<path d="" fill="#777675" transform="translate(0,0)"/>
<path d="" fill="#7A7C7D" transform="translate(0,0)"/>
<path d="" fill="#7C7D7C" transform="translate(0,0)"/>
<path d="" fill="#7E7F7F" transform="translate(0,0)"/>
<path d="" fill="#777878" transform="translate(0,0)"/>
<path d="" fill="#808283" transform="translate(0,0)"/>
<path d="" fill="#797B79" transform="translate(0,0)"/>
<path d="" fill="#5F5D5D" transform="translate(0,0)"/>
<path d="" fill="#818181" transform="translate(0,0)"/>
<path d="" fill="#7F7F81" transform="translate(0,0)"/>
<path d="" fill="#7E7C7B" transform="translate(0,0)"/>
<path d="" fill="#5C5C5C" transform="translate(0,0)"/>
<path d="" fill="#808382" transform="translate(0,0)"/>
<path d="" fill="#7E7F7E" transform="translate(0,0)"/>
<path d="" fill="#5A5A5A" transform="translate(0,0)"/>
<path d="" fill="#5F5E5D" transform="translate(0,0)"/>
<path d="" fill="#646361" transform="translate(0,0)"/>
</svg>
