<?xml version="1.0" encoding="UTF-8"?>
<!-- Generator: visioncortex VTracer 0.6.4 -->
<svg version="1.1" xmlns="http://www.w3.org/2000/svg" width="460" height="460">
<path d="M0 0 C151.8 0 303.6 0 460 0 C460 151.8 460 303.6 460 460 C308.2 460 156.4 460 0 460 C0 308.2 0 156.4 0 0 Z " fill="#000000" transform="translate(0,0)"/>
<path d="M0 0 C11.88 0 23.76 0 36 0 C36 2.97 36 5.94 36 9 C42.27 9 48.54 9 55 9 C55 11.97 55 14.94 55 18 C57.97 18 60.94 18 64 18 C64 20.97 64 23.94 64 27 C66.97 27 69.94 27 73 27 C73 36.24 73 45.48 73 55 C75.97 55 78.94 55 82 55 C82 79.09 82 103.18 82 128 C79.03 128 76.06 128 73 128 C73 130.97 73 133.94 73 137 C67.06 137 61.12 137 55 137 C55 134.03 55 131.06 55 128 C52.03 128 49.06 128 46 128 C46 125.03 46 122.06 46 119 C42.7 119 39.4 119 36 119 C36 121.97 36 124.94 36 128 C33.03 128 30.06 128 27 128 C27 130.97 27 133.94 27 137 C21.06 137 15.12 137 9 137 C9 134.03 9 131.06 9 128 C6.03 128 3.06 128 0 128 C0 125.03 0 122.06 0 119 C-3.3 119 -6.6 119 -10 119 C-10 121.97 -10 124.94 -10 128 C-12.97 128 -15.94 128 -19 128 C-19 130.97 -19 133.94 -19 137 C-24.94 137 -30.88 137 -37 137 C-37 134.03 -37 131.06 -37 128 C-39.97 128 -42.94 128 -46 128 C-46 103.91 -46 79.82 -46 55 C-43.03 55 -40.06 55 -37 55 C-37 45.76 -37 36.52 -37 27 C-34.03 27 -31.06 27 -28 27 C-28 24.03 -28 21.06 -28 18 C-25.03 18 -22.06 18 -19 18 C-19 15.03 -19 12.06 -19 9 C-12.73 9 -6.46 9 0 9 C0 6.03 0 3.06 0 0 Z " fill="#464646" transform="translate(212,157)"/>
<path d="M0 0 C6.27 0 12.54 0 19 0 C19 3.3 19 6.6 19 10 C21.97 10 24.94 10 28 10 C28 12.97 28 15.94 28 19 C22.06 19 16.12 19 10 19 C10 24.94 10 30.88 10 37 C12.97 37 15.94 37 19 37 C19 39.97 19 42.94 19 46 C13.06 46 7.12 46 1 46 C1 43.03 1 40.06 1 37 C-2.3 37 -5.6 37 -9 37 C-9 27.76 -9 18.52 -9 9 C-6.03 9 -3.06 9 0 9 C0 6.03 0 3.06 0 0 Z " fill="#B0B2B1" transform="translate(202,193)"/>
<path d="M0 0 C6.27 0 12.54 0 19 0 C19 3.3 19 6.6 19 10 C21.97 10 24.94 10 28 10 C28 12.97 28 15.94 28 19 C22.06 19 16.12 19 10 19 C10 24.94 10 30.88 10 37 C12.97 37 15.94 37 19 37 C19 39.97 19 42.94 19 46 C13.06 46 7.12 46 1 46 C1 43.03 1 40.06 1 37 C-2.3 37 -5.6 37 -9 37 C-9.03 32.52 -9.05 28.04 -9.06 23.56 C-9.07 22.28 -9.08 21 -9.09 19.69 C-9.09 18.47 -9.09 17.26 -9.1 16 C-9.1 14.88 -9.11 13.75 -9.11 12.59 C-9 10 -9 10 -8 9 C-5.33 8.86 -2.68 8.96 0 9 C0 6.03 0 3.06 0 0 Z " fill="#B0B1B0" transform="translate(257,193)"/>
<path d="M0 0 C5.94 0 11.88 0 18 0 C18 5.94 18 11.88 18 18 C12.06 18 6.12 18 0 18 C0 12.06 0 6.12 0 0 Z " fill="#22B14C" transform="translate(267,212)"/>
<path d="M0 0 C5.94 0 11.88 0 18 0 C18 5.94 18 11.88 18 18 C12.06 18 6.12 18 0 18 C0 12.06 0 6.12 0 0 Z " fill="#22B14C" transform="translate(212,212)"/>
</svg>
